<?xml version="1.0" standalone="no"?>
<!DOCTYPE svg PUBLIC "-//W3C//DTD SVG 1.1//EN" "http://www.w3.org/Graphics/SVG/1.1/DTD/svg11.dtd" >
<!--
2013-9-30: Created.
-->
<svg>
<metadata>
Created by iconfont
</metadata>
<defs>

<font id="iconfont" horiz-adv-x="1024" >
  <font-face
    font-family="iconfont"
    font-weight="500"
    font-stretch="normal"
    units-per-em="1024"
    ascent="896"
    descent="-128"
  />
    <missing-glyph />
    
    <glyph glyph-name="add" unicode="&#58881;" d="M832.234 448h-256.984v256.984c0 35.346-28.653 64-64 64s-64-28.654-64-64v-256.984h-255.484c-35.346 0-64-28.654-64-64s28.654-64 64-64h255.484v-256.984c0-35.346 28.654-64 64-64s64 28.654 64 64v256.984h256.984c35.346 0 64 28.653 64 64s-28.654 64-64 64z"  horiz-adv-x="1024" />

    
    <glyph glyph-name="add-circle" unicode="&#58882;" d="M512 832C264.577 832 64 631.424 64 384s200.577-448 448-448 448 200.576 448 448S759.423 832 512 832z m301.115-499.41H563.41v-249.705c0-32.447-26.307-58.754-58.754-58.754s-58.754 26.307-58.754 58.754V332.59H196.197c-32.447 0-58.754 26.307-58.754 58.754s26.307 58.754 58.754 58.754h249.705V699.803c0 32.447 26.307 58.754 58.754 58.754s58.754-26.307 58.754-58.754v-249.705h249.705c32.447 0 58.754-26.307 58.754-58.754s-26.308-58.754-58.754-58.754z"  horiz-adv-x="1024" />

    
    <glyph glyph-name="accessory" unicode="&#58883;" d="M820.859 708.531c-39.961 39.96-93.278 61.968-150.131 61.968-56.854 0-110.17-22.007-150.131-61.968l-0.206-0.207-369.573-383.317c-12.267-12.723-11.897-32.981 0.826-45.247 12.723-12.268 32.98-11.897 45.248 0.825l369.164 382.893c27.85 27.747 65.011 43.021 104.674 43.021 39.757 0 77.003-15.35 104.875-43.223 27.873-27.873 43.223-65.118 43.223-104.876 0-39.757-15.35-77.003-43.222-104.875l-79.186-79.186a31.968 31.968 0 0 1-7.175-5.424L397.696 75.617c-6.899-6.899-24.461-19.531-46.522-23.115-23.51-3.817-44.36 3.741-63.734 23.115-30.398 30.398-30.398 79.859 0 110.257l312.775 312.775c17.979 17.979 30.215 21.325 35.908 21.719 4.732 0.325 8.778-1.126 11.978-4.325 3.278-3.278 3.482-5.393 3.406-7.626-0.489-14.412-19.457-37.479-32.054-48.472l-0.95-0.819-167.534-169.105c-12.438-12.555-12.344-32.816 0.211-45.254 12.555-12.438 32.815-12.344 45.254 0.211L662.3 412.398c8.713 7.733 51.479 47.95 53.162 93.621 0.771 20.93-6.872 40.045-22.106 55.279-16.395 16.395-38.275 24.532-61.651 22.917-25.973-1.797-51.793-15.36-76.745-40.312L242.185 231.13c-55.352-55.352-55.352-145.416 0-200.768 33.643-33.642 68.913-42.815 97.373-42.815 7.873 0 15.227 0.703 21.878 1.783 35.637 5.789 65.475 24.992 81.583 41.101l33.735 33.938a32.41 32.41 0 0 1 2.207 2.005L820.859 408.27c39.96 39.96 61.967 93.278 61.967 150.13 0 56.853-22.007 110.171-61.967 150.131z"  horiz-adv-x="1024" />

    
    <glyph glyph-name="add-circle-o" unicode="&#58884;" d="M923.749 557.956c-22.51 53.218-54.727 101.006-95.757 142.036s-88.818 73.248-142.036 95.757C630.842 819.06 572.314 830.88 512 830.88s-118.841-11.82-173.956-35.131c-53.218-22.509-101.006-54.727-142.036-95.757s-73.248-88.818-95.757-142.036C76.94 502.841 65.12 444.314 65.12 384s11.82-118.842 35.131-173.956c22.509-53.218 54.727-101.006 95.757-142.036s88.818-73.247 142.036-95.757C393.159-51.06 451.686-62.88 512-62.88s118.842 11.82 173.956 35.131c53.218 22.51 101.006 54.727 142.036 95.757s73.247 88.818 95.757 142.036C947.06 265.158 958.88 323.686 958.88 384s-11.82 118.841-35.131 173.956zM512 1.12c-211.121 0-382.88 171.759-382.88 382.88S300.879 766.88 512 766.88 894.88 595.121 894.88 384 723.121 1.12 512 1.12zM581.559 448.111v192.47c0 35.346-28.653 64-64 64-35.346 0-64-28.654-64-64V448.11H261.088c-35.346 0-64-28.654-64-64 0-35.347 28.654-64 64-64h192.471v-192.472c0-35.347 28.654-64 64-64 35.347 0 64 28.653 64 64V320.111l194.456-7.654c35.347 0 62.016 36.307 62.016 71.654 0 35.346-26.669 56.346-62.016 56.346l-194.456 7.654z"  horiz-adv-x="1024" />

    
    <glyph glyph-name="angle-down" unicode="&#58887;" d="M506.114 225.161c-0-0-0-0-0.001-0-8.616 0-16.416 3.492-22.062 9.139l-277.607 277.607c-12.185 12.185-12.185 31.941 0 44.126 12.185 12.185 31.941 12.185 44.126 0l255.543-255.544 255.543 255.544c12.186 12.185 31.942 12.185 44.126 0 12.185-12.185 12.185-31.941 0-44.126l-277.605-277.607c-5.646-5.647-13.446-9.139-22.062-9.139-0 0-0 0-0.001 0z"  horiz-adv-x="1024" />

    
    <glyph glyph-name="angle-right" unicode="&#58888;" d="M369.647 67.293c-8.189 0-16.379 3.124-22.627 9.373-12.497 12.496-12.497 32.758 0 45.254l262.079 262.080-262.080 262.079c-12.497 12.497-12.497 32.758 0 45.255s32.758 12.497 45.255 0l284.706-284.707c12.497-12.497 12.497-32.758 0-45.254l-284.706-284.707c-6.248-6.249-14.438-9.373-22.627-9.373z"  horiz-adv-x="1024" />

    
    <glyph glyph-name="angle-left" unicode="&#58889;" d="M654.354 67.293c-8.189 0-16.379 3.124-22.627 9.373l-284.708 284.707c-5.791 5.791-9.372 13.791-9.372 22.627 0 8.836 3.582 16.836 9.372 22.627l284.708 284.707c12.496 12.497 32.758 12.497 45.254 0 12.497-12.497 12.497-32.758 0-45.255l-262.080-262.079 262.079-262.079c12.497-12.497 12.497-32.759 0-45.255-6.248-6.249-14.437-9.373-22.626-9.373z"  horiz-adv-x="1024" />

    
    <glyph glyph-name="angle-up" unicode="&#58890;" d="M796.706 209.646c-8.189 0-16.379 3.124-22.627 9.373l-262.079 262.080-262.079-262.079c-12.497-12.498-32.758-12.498-45.255 0-12.497 12.496-12.497 32.758 0 45.254l284.707 284.708c5.791 5.79 13.791 9.372 22.627 9.372s16.836-3.581 22.627-9.372l284.707-284.708c12.496-12.496 12.496-32.758-0.001-45.254-6.248-6.249-14.437-9.374-22.627-9.374z"  horiz-adv-x="1024" />

    
    <glyph glyph-name="camera" unicode="&#58905;" d="M901.811 629.436H753.42a28.877 28.877 0 0 0-27.049 18.769l-25.541 68.366c-9.149 24.487-35.723 42.801-59.838 42.801H388.868c-24.116 0-50.69-18.315-59.839-42.801l-25.541-68.366a28.877 28.877 0 0 0-27.049-18.769h-154.25c-31.763 0-57.75-25.988-57.75-57.75v-505.31c0-31.762 25.987-57.75 57.75-57.75h779.622c31.763 0 57.75 25.988 57.75 57.75v505.31c0 31.762-25.988 57.75-57.75 57.75zM512 124.126c-111.453 0-202.124 90.671-202.124 202.124S400.547 528.374 512 528.374s202.124-90.671 202.124-202.124S623.453 124.126 512 124.126zM512 470.625c-79.61 0-144.374-64.771-144.374-144.374S432.39 181.876 512 181.876s144.374 64.771 144.374 144.374S591.61 470.625 512 470.625zM844.061 513.937m-43.312 0a43.312 43.312 0 1 1 86.624 0 43.312 43.312 0 1 1-86.624 0Z"  horiz-adv-x="1024" />

    
    <glyph glyph-name="calender" unicode="&#58906;" d="M256.59 631.604c14.765 0 26.737 9.451 26.737 21.108V811.023c0 11.657-11.972 21.108-26.737 21.108-14.765 0-26.737-9.451-26.737-21.108v-158.311c0-11.657 11.972-21.108 26.737-21.108zM783.081 738.552h-15.479v-95.691c0-20.981-21.548-37.994-42.53-37.994s-50.751 17.013-50.751 37.994v95.691H300.509v-95.691c0-20.981-23.249-37.994-44.231-37.994s-45.932 17.013-45.932 37.994v95.691h-2.111c-44.231 0-80.211-35.98-80.211-80.211v-641.688c0-44.231 35.98-80.211 80.211-80.211h574.846c44.231 0 80.211 35.98 80.211 80.211V658.341c0 44.231-35.98 80.211-80.211 80.211z m15.12-713.742c0-14.194-11.548-25.748-25.748-25.748H218.865c-14.201 0-25.748 11.554-25.748 25.748V475.405h605.085V24.81zM722.237 631.604c14.765 0 26.737 9.451 26.737 21.108V811.023c0 11.657-11.972 21.108-26.737 21.108-14.765 0-26.737-9.451-26.737-21.108v-158.311c0-11.657 11.972-21.108 26.737-21.108z"  horiz-adv-x="1024" />

    
    <glyph glyph-name="check-circle" unicode="&#58910;" d="M510.624 832.355c-247.545 0-448.219-200.673-448.219-448.219 0-247.544 200.674-448.219 448.219-448.219s448.219 200.675 448.219 448.219c0 247.546-200.674 448.219-448.219 448.219z m263.361-303.317l-295.56-346.535c-17.433-20.321-42.128-30.747-66.946-30.747-20.279 0-40.632 6.967-57.183 21.168l-3.511 3.002-126.836 163.443c-15.484 19.951-11.862 48.678 8.094 64.161 19.962 15.464 48.687 11.858 64.161-8.092l116.068-149.555 292.127 342.504c16.383 19.224 45.243 21.514 64.468 5.115 19.213-16.391 21.507-45.25 5.118-64.464z"  horiz-adv-x="1024" />

    
    <glyph glyph-name="check" unicode="&#58911;" d="M337.468 72.007c-27.95 0-54.652 9.835-76.016 28.169l-4.372 3.752-180.009 231.942c-19.292 24.858-14.78 60.648 10.077 79.939 24.857 19.291 60.648 14.78 79.939-10.078l170.565-219.773c0.090 0.001 0.185 0.005 0.283 0.012 1.309 0.1 1.903 0.73 2.121 0.982l420.554 493.099c20.421 23.942 56.379 26.796 80.32 6.377 23.94-20.418 26.796-56.378 6.377-80.319l-420.754-493.33c-20.323-23.683-48.715-38.039-79.945-40.423-3.057-0.234-6.107-0.349-9.14-0.349z"  horiz-adv-x="1024" />

    
    <glyph glyph-name="close" unicode="&#58914;" d="M567.192 382.777l209.774 209.774c15.55 15.551 15.55 40.763 0 56.313-15.551 15.55-40.762 15.55-56.313 0l-209.774-209.774-209.775 209.774c-15.551 15.55-40.762 15.55-56.313 0-15.55-15.55-15.55-40.763 0-56.313l209.774-209.774-209.774-209.775c-15.55-15.55-15.55-40.763 0-56.313 7.775-7.775 17.966-11.663 28.157-11.663 10.191 0 20.381 3.887 28.157 11.663l209.774 209.774 209.774-209.774c7.776-7.776 17.965-11.663 28.157-11.663 10.189 0 20.382 3.889 28.157 11.663 15.55 15.55 15.55 40.763 0 56.313l-209.775 209.775z"  horiz-adv-x="1024" />

    
    <glyph glyph-name="close-circle" unicode="&#58915;" d="M511.333 832.054c-247.423 0-448-200.576-448-448 0-247.422 200.577-448 448-448s448 200.578 448 448c0 247.424-200.577 448-448 448z m252.596-622.38c21.606-21.593 21.606-56.622 0-78.215-10.79-10.804-24.955-16.205-39.109-16.205-14.152 0-28.317 5.401-39.108 16.205L519.479 297.693 353.245 131.459c-10.79-10.804-24.955-16.205-39.108-16.205-14.153 0-28.318 5.401-39.109 16.205-21.606 21.593-21.606 56.622 0 78.215l166.235 166.234-166.234 166.234c-21.606 21.593-21.606 56.624 0 78.217 21.58 21.605 56.636 21.605 78.216 0l166.234-166.236 166.234 166.236c21.58 21.605 56.636 21.605 78.216 0 21.606-21.593 21.606-56.624 0-78.217L597.694 375.908l166.235-166.234z"  horiz-adv-x="1024" />

    
    <glyph glyph-name="clock" unicode="&#58916;" d="M923.152 557.704c-22.477 53.141-54.647 100.859-95.618 141.831-40.971 40.971-88.689 73.141-141.83 95.618C630.669 818.43 572.227 830.232 512 830.232c-60.227 0-118.669-11.803-173.704-35.08-53.141-22.477-100.859-54.647-141.831-95.618-40.971-40.971-73.141-88.689-95.618-141.831C77.57 502.669 65.768 444.227 65.768 384c0-60.227 11.803-118.669 35.08-173.704 22.477-53.141 54.647-100.859 95.618-141.83 40.971-40.971 88.689-73.142 141.831-95.618 55.034-23.277 113.477-35.08 173.704-35.08 60.227 0 118.669 11.803 173.704 35.08 53.141 22.477 100.859 54.647 141.83 95.618s73.142 88.689 95.618 141.83c23.277 55.035 35.08 113.478 35.08 173.704-0.001 60.227-11.803 118.669-35.081 173.704zM512 1.768c-210.764 0-382.232 171.469-382.232 382.232S301.236 766.232 512 766.232 894.232 594.764 894.232 384 722.764 1.768 512 1.768zM686.613 402.332H543.361V625.244c0 17.673-14.327 32-32 32s-32-14.327-32-32v-254.912c0-17.673 14.327-32 32-32h175.252c17.673 0 32 14.327 32 32 0 17.673-14.327 32-32 32z"  horiz-adv-x="1024" />

    
    <glyph glyph-name="comment" unicode="&#58919;" d="M512 751.206c-247.162 0-447.527-161.007-447.527-359.62 0-82.45 34.532-158.417 92.605-219.078l-0.264-1.396-22.58-119.482c-4.195-22.198 17.213-40.612 38.534-33.146l114.764 40.186 27.887 9.765c59.339-23.353 126.052-36.469 196.58-36.469 247.162 0 447.527 161.007 447.527 359.62S759.162 751.206 512 751.206z"  horiz-adv-x="1024" />

    
    <glyph glyph-name="cog-o" unicode="&#58920;" d="M512.064 571.369c-103.351 0-187.433-84.082-187.433-187.433 0-103.352 84.082-187.434 187.433-187.434 103.352 0 187.434 84.082 187.434 187.434 0 103.351-84.082 187.433-187.434 187.433z m0-310.866c-68.061 0-123.433 55.372-123.433 123.434 0 68.061 55.372 123.433 123.433 123.433 68.062 0 123.434-55.372 123.434-123.433 0-68.062-55.372-123.434-123.434-123.434zM908.36 492.763l-75.519 12.398a342.447 342.447 0 0 1-7.942 19.14l44.797 62.1c17.019 23.588 12.59 58.664-10.301 81.587l-62.758 62.853c-22.889 22.924-57.957 27.402-81.569 10.424l-62.172-44.708a342.93 342.93 0 0 1-17.199 7.214l-11.835 75.636c-4.049 25.866-27.04 46.34-56.074 50.066-3.93 0.641-7.64 0.953-11.313 0.953h-43.146l-42.994 0.258c-3.687 0.015-7.378-0.268-11.308-0.883-29.062-3.549-52.18-23.886-56.384-49.731l-12.283-75.533a342.2 342.2 0 0 1-17.247-7.139l-61.903 45.08c-23.511 17.122-58.605 12.85-81.63-9.935l-63.133-62.473c-23.027-22.786-27.667-57.833-10.793-81.523l44.417-62.358a342.928 342.928 0 0 1-8.039-19.101l-75.599-11.947c-28.731-4.538-50.506-32.39-50.65-64.784l-0.4-88.817c-0.147-32.393 21.375-60.439 50.063-65.239l75.501-12.628a342.816 342.816 0 0 1 7.872-19.149l-44.992-61.978c-17.085-23.536-12.762-58.622 10.057-81.616l62.569-63.039c22.82-22.992 57.874-27.579 81.538-10.67l62.294 44.513a343.305 343.305 0 0 1 19.111-8.019l12.058-75.577c4.582-28.724 32.468-50.456 64.863-50.552l88.817-0.267h0.222c32.298 0.001 60.196 21.53 64.942 50.16l12.513 75.512a342.733 342.733 0 0 1 19.143 7.907l62.042-44.896c23.565-17.053 58.646-12.673 81.6 10.181l62.947 62.663c22.958 22.856 27.49 57.918 10.546 81.555l-44.607 62.229a342.946 342.946 0 0 1 7.998 19.123l75.555 12.171c28.715 4.628 50.404 32.545 50.453 64.938l0.133 88.819c0.048 32.39-21.56 60.371-50.261 65.082z m-13.873-153.81a7.45 7.45 0 0 0-0.431-2.46l-83.597-13.466c-0.097-0.006-0.252 0.002-0.477 0.01l-24.424 0.897-7.294-23.326c-4.986-15.946-11.573-31.704-19.578-46.836l-11.459-21.662 17.926-16.709c0.153-0.143 0.256-0.244 0.319-0.309l49.357-68.856a7.459 7.459 0 0 0-1.441-2.037l-62.948-62.665a7.456 7.456 0 0 0-2.043-1.431l-68.633 49.666a12.447 12.447 0 0 0-0.312 0.325l-16.629 18.011-21.719-11.365c-15.178-7.941-30.961-14.457-46.911-19.364l-23.377-7.193 0.806-24.445c0.007-0.218 0.008-0.367 0.008-0.461l-13.843-83.541a7.479 7.479 0 0 0-2.439-0.419h-0.021l-88.82 0.267a7.454 7.454 0 0 0-2.458 0.434l-13.343 83.629c0 0.097 0.002 0.253 0.01 0.481l0.93 24.417-23.31 7.328c-15.995 5.028-31.744 11.634-46.81 19.633l-21.638 11.488-16.737-17.892c-0.146-0.156-0.25-0.261-0.314-0.324l-68.925-49.25a7.472 7.472 0 0 0-2.036 1.444l-62.568 63.039a7.461 7.461 0 0 0-1.43 2.048l49.771 68.562c0.061 0.061 0.159 0.156 0.305 0.29l18.068 16.601-11.344 21.757c-7.904 15.159-14.393 30.951-19.286 46.938l-7.156 23.377-24.436-0.759c-0.229-0.006-0.384-0.007-0.481-0.007l-83.524 13.97a7.487 7.487 0 0 0-0.416 2.462l0.4 88.819c0.004 0.94 0.2 1.791 0.438 2.456l83.645 13.219c0.096 0 0.251-0.002 0.479-0.011l24.428-0.98 7.367 23.311c5.072 16.05 11.696 31.792 19.687 46.786l11.526 21.627-17.875 16.765a13.14 13.14 0 0 0-0.314 0.305l-49.147 68.997a7.495 7.495 0 0 0 1.449 2.035l63.134 62.475a7.458 7.458 0 0 0 2.047 1.426l68.488-49.875c0.062-0.062 0.161-0.164 0.302-0.318l16.573-18.072 21.76 11.301c14.813 7.693 30.078 14.005 45.368 18.761l23.325 7.254-0.848 24.412a13.208 13.208 0 0 0-0.009 0.48l13.575 83.478a8.01 8.01 0 0 0 1.733 0.389l0.912 0.1 0.904 0.152c0.861 0.144 1.209 0.146 1.223 0.146l43.086-0.258h43.437c0.015 0 0.362-0.004 1.224-0.154l0.905-0.158 0.913-0.105a8.013 8.013 0 0 0 1.727-0.398l13.077-83.571c0-0.093-0.002-0.244-0.012-0.464l-1.03-24.439 23.313-7.406c15.461-4.912 30.69-11.297 45.266-18.98l21.688-11.431 16.683 17.965c0.141 0.151 0.239 0.251 0.302 0.313l68.782 49.461a7.447 7.447 0 0 0 2.04-1.438l62.758-62.853a7.492 7.492 0 0 0 1.435-2.041l-49.563-68.709c-0.063-0.063-0.167-0.166-0.325-0.313l-17.977-16.655 11.394-21.696c7.978-15.191 14.519-30.966 19.442-46.885l7.219-23.338 24.416 0.812c0.234 0.008 0.398 0.008 0.493 0.009l83.557-13.718a7.46 7.46 0 0 0 0.423-2.46l-0.135-88.825z"  horiz-adv-x="1024" />

    
    <glyph glyph-name="comment-o" unicode="&#58921;" d="M512 687.206c53.396 0 105.075-8.363 153.602-24.856 46.197-15.702 87.499-38.029 122.758-66.362 69.107-55.533 107.167-128.124 107.167-204.401s-38.059-148.87-107.167-204.402c-35.259-28.333-76.561-50.661-122.758-66.363-48.527-16.493-100.206-24.856-153.602-24.856-30.649 0-61.145 2.817-90.641 8.371-28.508 5.369-56.266 13.326-82.501 23.651l-22.136 8.712-22.452-7.862-27.887-9.765-58.115-20.35 11.433 60.501 0.264 1.396 6.117 32.358-22.773 23.788c-24.148 25.224-42.833 52.96-55.534 82.437-12.807 29.721-19.301 60.803-19.301 92.383 0 76.277 38.059 148.868 107.167 204.401 35.259 28.333 76.561 50.661 122.758 66.362 48.526 16.494 100.205 24.857 153.601 24.857m0 64c-247.162 0-447.527-161.007-447.527-359.62 0-82.45 34.532-158.417 92.605-219.078l-0.264-1.396-22.58-119.482c-3.547-18.77 11.212-34.835 28.746-34.835 3.202 0 6.496 0.536 9.789 1.689l114.764 40.187 27.887 9.765c59.339-23.353 126.052-36.469 196.58-36.469 247.162 0 447.527 161.007 447.527 359.62S759.162 751.206 512 751.206z"  horiz-adv-x="1024" />

    
    <glyph glyph-name="download" unicode="&#58929;" d="M621.461 289.12h-28.299V468c0 17.6-14.4 32-32 32H437.363c-17.6 0-32-14.4-32-32v-178.88h-32.211c-24.634 0-40.03-26.667-27.713-48l124.155-215.042c12.317-21.333 43.109-21.333 55.426 0L649.174 241.12c12.317 21.333-3.079 48-27.713 48zM958.99 395.993a830.82 830.82 0 0 1-0.051 6.39l-0.021 1.369a33.988 33.988 0 0 1-0.379 4.378c-0.136 5.652-0.248 11.446-0.248 16.018 0 61.18-24.707 118.63-69.57 161.768-44.521 42.809-103.627 66.385-166.43 66.385-9.129 0-18.313-0.526-27.476-1.571-22.103 29.633-50.251 54.559-82.368 72.787-39.661 22.509-84.846 34.406-130.669 34.406-51.873 0-102.133-14.986-145.345-43.337-36.917-24.221-67.086-57.04-88.069-95.617-47.595-7.828-91.255-30.54-124.459-65.06-37.974-39.478-58.887-90.919-58.887-144.848 0-2.714 0.004-4.623 0.008-6.351-0.001-0.072-0.007-0.142-0.008-0.214v-0.009c-0.002-0.144-0.003-0.29-0.003-0.434l-0.008-8.107c0.002-2.434 0.225-4.734 0.625-6.912 7.398-89.911 82.99-160.859 174.73-160.859h20.44c17.673 0 32 14.327 32 32s-14.327 32-32 32h-20.44c-61.287 0-111.229 49.866-111.331 111.18l-0.002 0.875c-0.005 1.86-0.009 3.85-0.009 6.833 0 76.592 62.772 141.769 142.908 148.38l18.652 1.539 7.803 17.011c32.862 71.642 104.85 117.933 183.398 117.933 69.774 0 133.688-35.49 170.967-94.935l11.775-18.776 21.718 4.421c11.956 2.434 24.086 3.668 36.053 3.668 94.841 0 172-73.639 172-164.153 0-7.508 0.252-17.275 0.464-25.295-1.437-59.99-51.183-108.679-111.202-108.679h-45.828c-17.673 0-32-14.327-32-32s14.327-32 32-32h45.828c46.123 0 89.724 17.922 122.771 50.464 29.603 29.15 47.628 66.962 51.612 107.676 0.667 2.701 1.042 5.609 1.057 8.73a552.32 552.32 0 0 1-0.006 2.946z"  horiz-adv-x="1024" />

    
    <glyph glyph-name="edit" unicode="&#58932;" d="M860.493 795.623l101.446-101.446c12.445-12.445 12.445-32.81 0-45.255l-19.946-19.946c-12.445-12.445-32.81-12.445-45.255 0L795.292 730.423c-12.445 12.445-12.445 32.81 0 45.255l19.946 19.946c12.445 12.444 32.81 12.444 45.255-0.001zM878.616 630.799l-57.083 57.084c-1.038-2.108-2.313-4.131-4.037-5.906L437.14 290.095a22.996 22.996 0 0 0-16.546-7.001 22.976 22.976 0 0 0-16.051 6.506c-9.14 8.87-9.354 23.468-0.495 32.597l380.356 391.882c1.657 1.708 3.555 3 5.537 4.083-17.901 11.861-42.254 9.911-58.026-5.861L373.312 353.698c-18.004-18.006-18.004-47.197 0-65.202l81.5-81.5c18.005-18.004 47.196-18.004 65.201 0L878.616 565.6c18.004 18.003 18.004 47.195 0 65.199zM304.622 98.059l120.228 32.215c23.794 6.376 31.764 36.118 14.345 53.537l-88.013 88.013c-17.419 17.419-47.161 9.449-53.537-14.345L265.43 137.251c-6.376-23.795 15.398-45.568 39.192-39.192z"  horiz-adv-x="1024" />

    
    <glyph glyph-name="eye" unicode="&#58933;" d="M506.838611 254.880773a128.468 128.468 0 1 1 3.623258 256.910451 128.468 128.468 0 1 1-3.623258-256.910451ZM941.314 427.153c-51.714 60.895-114.262 109.28-185.907 143.811-74.21 35.768-153.904 54.498-236.87 55.67-86.925 1.244-170.593-16.833-248.676-53.685-74.371-35.1-141.548-87.226-194.269-150.743-20.26-24.41-20.08-59.654 0.427-83.804 51.714-60.896 114.262-109.28 185.907-143.812 74.21-35.769 153.905-54.498 236.87-55.671 2.775-0.039 5.533-0.059 8.301-0.059 83.948 0 164.786 18.068 240.376 53.743 74.37 35.101 141.548 87.227 194.269 150.745 20.26 24.411 20.08 59.655-0.428 83.805z m-48.819-42.928c-95.892-115.529-236.072-181.369-385.588-181.361-2.392 0-4.811 0.017-7.207 0.051-144.506 2.041-281.151 66.524-374.898 176.915-0.349 0.411-0.333 1.057 0.036 1.502 97.425 117.376 240.599 183.465 392.794 181.309 144.507-2.042 281.152-66.525 374.898-176.915 0.35-0.411 0.334-1.056-0.035-1.501z"  horiz-adv-x="1024" />

    
    <glyph glyph-name="filter" unicode="&#58937;" d="M874.212 813.358H149.788c-30.628 0-43.757-38.887-19.397-57.451l322.622-245.871v-523.34c0-25.558 28.485-40.803 49.75-26.626l55.073 36.715a32.001 32.001 0 0 1 14.25 26.626V510.873l321.523 245.034c24.36 18.565 11.231 57.451-19.397 57.451z"  horiz-adv-x="1024" />

    
    <glyph glyph-name="heart" unicode="&#58948;" d="M958.815 456.823c0 167.342-112.526 303-251.334 303-63.099 0-120.73-28.073-164.854-74.385-13.235-13.892-35.632-13.020-47.836 1.786-45.524 55.232-108.584 89.431-178.274 89.431-138.807 0-251.334-135.657-251.334-303 0-57.363 16.638-109.439 36.2-156.726 65.177-157.549 333.493-289.889 397.065-319.432 3.955-1.885 8.594-2.985 13.491-2.985 4.916 0 9.573 1.109 13.734 3.091 49.652 23.23 226.192 110.045 333.563 217.719 57.888 58.051 99.58 142.9 99.58 241.501z"  horiz-adv-x="1024" />

    
    <glyph glyph-name="heart-o" unicode="&#58949;" d="M316.518 712.656c47.962 0 93.735-23.488 128.888-66.138 18.319-22.224 45.341-34.971 74.136-34.971 26.108 0 51.411 10.841 69.422 29.745 16.786 17.619 35.542 31.27 55.745 40.574 20.111 9.261 41.231 13.957 62.772 13.957 47.746 0 93.367-23.299 128.461-65.607 18.218-21.963 32.594-47.748 42.731-76.64 10.711-30.53 16.142-63.082 16.142-96.753 0-38.371-7.676-75.559-22.815-110.532-13.778-31.827-33.862-61.488-58.083-85.777-42.098-42.217-101.291-86.216-175.935-130.774-51.95-31.011-99.393-54.935-126.078-67.81-36.609 17.592-106.031 53.109-175.434 100.231-92.609 62.878-153.45 124.857-175.946 179.235-14.591 35.27-31.339 82.177-31.339 132.26 0 33.671 5.431 66.224 16.142 96.754 10.136 28.892 24.513 54.677 42.731 76.64 35.093 42.306 80.714 65.606 128.46 65.606M316.518 776.656c-138.807 0-251.333-135.657-251.333-303 0-57.363 16.638-109.439 36.2-156.726 65.177-157.549 333.493-289.889 397.064-319.432 3.958-1.884 8.601-2.985 13.501-2.985 4.62 0 9.24 1.002 13.529 3.008 49.845 23.313 226.385 110.128 333.756 217.802 57.887 58.050 99.579 142.899 99.579 241.5 0 167.342-112.526 303-251.334 303-63.099 0-120.73-28.073-164.854-74.385-6.311-6.624-14.707-9.891-23.085-9.891-9.193 0-18.366 3.931-24.751 11.678-45.522 55.232-108.582 89.431-178.272 89.431z"  horiz-adv-x="1024" />

    
    <glyph glyph-name="home" unicode="&#58950;" d="M916.16 535.506l-353.538 280.575c-32.683 23.992-78.269 22.919-109.698-2.581l-348.427-278.035c-19.798-16.064-31.225-39.73-31.225-64.668v-494.097c0-21.173 17.164-38.337 38.337-38.337h208.701c21.173 0 38.337 17.164 38.337 38.337v236.429c0 34.874 29.614 63.407 65.809 63.407h175.289c36.195 0 65.809-28.533 65.809-63.407v-236.429c0-21.173 17.164-38.337 38.337-38.337h208.499c21.173 0 38.337 17.164 38.337 38.337v491.558c0.001 26.385-12.784 51.258-34.567 67.248z"  horiz-adv-x="1024" />

    
    <glyph glyph-name="home-o" unicode="&#58951;" d="M509.452 769.375c3.779 0 9.316-0.779 14.614-4.402l354.222-281.059c5.364-3.938 8.441-9.645 8.441-15.657v-465.894h-157.174v210.766c0 70.253-58.232 127.408-129.809 127.408h-175.289c-71.577 0-129.809-57.155-129.809-127.408v-210.765h-157.376v468.434c0 5.569 2.702 10.978 7.42 14.863l348.557 278.14c4.43 3.595 10.184 5.574 16.203 5.574M509.452 833.375c-20.136 0-40.232-6.654-56.528-19.875l-348.427-278.035c-19.798-16.064-31.225-39.729-31.225-64.668v-494.097c0-21.173 17.164-38.337 38.337-38.337h208.701c21.173 0 38.337 17.164 38.337 38.337v236.429c0 34.874 29.614 63.408 65.809 63.408h175.289c36.195 0 65.809-28.533 65.809-63.408v-236.428c0-21.173 17.164-38.337 38.337-38.337h208.499c21.173 0 38.337 17.164 38.337 38.337v491.557c0 26.385-12.786 51.258-34.568 67.248l-353.537 280.575c-15.737 11.552-34.471 17.294-53.17 17.294z"  horiz-adv-x="1024" />

    
    <glyph glyph-name="information" unicode="&#58952;" d="M925.928 558.701c-22.574 53.371-54.884 101.295-96.031 142.443-41.147 41.148-89.072 73.458-142.442 96.032C632.182 820.554 573.487 832.407 513 832.407S393.818 820.554 338.546 797.176c-53.371-22.574-101.295-54.883-142.443-96.031s-73.458-89.073-96.031-142.443C76.694 503.429 64.84 444.735 64.84 384.248c0-60.487 11.854-119.181 35.232-174.454 22.574-53.37 54.883-101.295 96.031-142.443 41.148-41.147 89.072-73.457 142.443-96.031 55.272-23.378 113.966-35.231 174.454-35.231s119.182 11.854 174.454 35.231c53.37 22.574 101.295 54.884 142.442 96.031 41.147 41.148 73.457 89.073 96.031 142.443 23.378 55.272 35.231 113.967 35.231 174.454 0.001 60.487-11.852 119.181-35.23 174.453zM562.707 121.237c0-22.227-5.283-39.015-15.85-50.394-10.567-11.379-23.978-17.084-40.234-17.084s-29.468 5.837-39.621 17.483c-10.168 11.645-15.244 28.315-15.244 49.995V438.632c0 21.946 5.076 38.468 15.244 49.581 10.153 11.113 23.365 16.67 39.621 16.67s29.668-5.557 40.234-16.67c10.567-11.113 15.85-26.557 15.85-46.33v-320.646z m-16.256 449.677c-10.84-9.621-23.712-14.424-38.609-14.424-15.443 0-28.648 4.744-39.628 14.217-10.966 9.488-16.456 22.906-16.456 40.242 0 15.709 5.623 28.655 16.87 38.808 11.239 10.168 24.31 15.237 39.214 15.237 14.357 0 27.089-4.596 38.202-13.803 11.106-9.222 16.663-22.626 16.663-40.242 0-17.07-5.424-30.415-16.256-40.035z"  horiz-adv-x="1024" />

    
    <glyph glyph-name="information-o" unicode="&#58953;" d="M925.928 558.701c-22.574 53.371-54.884 101.295-96.031 142.443-41.147 41.148-89.072 73.458-142.442 96.032C632.182 820.554 573.487 832.407 513 832.407S393.818 820.554 338.546 797.176c-53.371-22.574-101.295-54.883-142.443-96.031s-73.458-89.073-96.031-142.443C76.694 503.429 64.84 444.735 64.84 384.248c0-60.487 11.854-119.181 35.232-174.454 22.574-53.37 54.883-101.295 96.031-142.443 41.148-41.147 89.072-73.457 142.443-96.031 55.272-23.378 113.966-35.231 174.454-35.231s119.182 11.854 174.454 35.231c53.37 22.574 101.295 54.884 142.442 96.031 41.147 41.148 73.457 89.073 96.031 142.443 23.378 55.272 35.231 113.967 35.231 174.454 0.001 60.487-11.852 119.181-35.23 174.453zM513 0.088c-211.826 0-384.16 172.333-384.16 384.16 0 211.826 172.333 384.16 384.16 384.16s384.159-172.333 384.159-384.16c0-211.827-172.333-384.16-384.159-384.16zM506.623 504.884c-16.256 0-29.468-5.557-39.621-16.67-10.168-11.113-15.244-27.636-15.244-49.581v-317.396c0-21.68 5.076-38.35 15.244-49.995 10.153-11.645 23.365-17.483 39.621-17.483s29.668 5.704 40.234 17.084c10.567 11.379 15.85 28.168 15.85 50.394V441.883c0 19.773-5.283 35.217-15.85 46.33-10.566 11.114-23.978 16.671-40.234 16.671zM546.044 651.19c-11.113 9.207-23.845 13.803-38.202 13.803-14.904 0-27.975-5.069-39.214-15.237-11.246-10.153-16.87-23.099-16.87-38.808 0-17.335 5.49-30.754 16.456-40.242 10.98-9.473 24.185-14.217 39.628-14.217 14.897 0 27.769 4.803 38.609 14.424 10.833 9.621 16.256 22.966 16.256 40.035 0 17.616-5.557 31.02-16.663 40.242z"  horiz-adv-x="1024" />

    
    <glyph glyph-name="link" unicode="&#58954;" d="M560.739 229.458l-158.35-125.469c-25.724-20.382-58.002-29.517-90.9-25.697-32.894 3.811-62.234 20.076-82.617 45.801-20.382 25.724-29.509 58.006-25.698 90.899 3.811 32.894 20.076 62.234 45.8 82.616l158.35 125.469c28.477 22.563 74.49 29.497 102.572 15.455 15.805-7.903 35.027-1.497 42.933 14.311 7.903 15.807 1.496 35.029-14.312 42.933-24.918 12.459-56.227 16.787-88.155 12.191-30.701-4.421-60.101-16.754-82.785-34.728L209.227 347.77c-39.123-30.998-63.851-75.538-69.629-125.413s8.111-98.889 39.11-138.012 75.539-63.851 125.413-69.629a191.85 191.85 0 0 1 22.107-1.281c42.088 0.001 82.586 13.992 115.904 40.392l158.35 125.469c13.852 10.976 16.184 31.103 5.208 44.954s-31.098 16.185-44.951 5.208zM835.7 689.703c-30.998 39.124-75.537 63.853-125.412 69.632s-98.889-8.108-138.012-39.107L413.923 594.765c-13.852-10.975-16.184-31.102-5.209-44.954 10.976-13.853 31.101-16.185 44.954-5.209l158.353 125.464c25.726 20.383 58.011 29.506 90.9 25.695 32.894-3.812 62.234-20.078 82.615-45.802 42.295-53.382 33.275-131.222-20.106-173.517L607.076 350.979c-14.64-11.599-33.979-20.342-53.063-23.988-18.742-3.582-35.942-2.116-48.425 4.127-15.807 7.903-35.029 1.497-42.933-14.312-7.904-15.807-1.497-35.028 14.311-42.933 17.035-8.518 36.536-12.831 57.498-12.831 10.212 0 20.772 1.024 31.56 3.086 29.311 5.6 58.006 18.629 80.797 36.687l158.354 125.464c39.124 30.998 63.854 75.537 69.633 125.412s-8.11 98.888-39.108 138.012z"  horiz-adv-x="1024" />

    
    <glyph glyph-name="location" unicode="&#58955;" d="M474.129 830.071c-153.213-16.689-277.43-138.728-296.656-291.644-9.901-78.748 7.502-152.922 43.861-214.584 71.595-150.11 214.528-316.671 269.5-377.995 11.882-13.255 32.546-13.347 44.428-0.092 57.923 64.616 213.866 246.527 280.641 402.671 21.381 44.289 33.37 93.963 33.37 146.439-0.001 198.748-171.909 357.343-375.144 335.205z m67.511-504.399c-117.27-14.78-215.888 83.842-201.106 201.11 10.072 79.901 74.595 144.422 154.497 154.491 117.266 14.777 215.881-83.839 201.103-201.106-10.07-79.902-74.592-144.425-154.494-154.495z"  horiz-adv-x="1024" />

    
    <glyph glyph-name="minus-circle" unicode="&#58960;" d="M511.333 829.51c-246.048 0-445.51-199.461-445.51-445.51s199.462-445.51 445.51-445.51S956.843 137.951 956.843 384 757.381 829.51 511.333 829.51z m299.441-525.848H197.285c-32.266 0-58.428 26.161-58.428 58.427s26.161 58.428 58.428 58.428h613.489c32.266 0 58.428-26.161 58.428-58.428s-26.161-58.427-58.428-58.427z"  horiz-adv-x="1024" />

    
    <glyph glyph-name="minus-circle-o" unicode="&#58962;" d="M923.749 557.956c-22.51 53.218-54.727 101.006-95.757 142.036s-88.818 73.248-142.036 95.757C630.842 819.06 572.314 830.88 512 830.88s-118.841-11.82-173.956-35.131c-53.218-22.509-101.006-54.727-142.036-95.757s-73.248-88.818-95.757-142.036C76.94 502.841 65.12 444.314 65.12 384s11.82-118.842 35.131-173.956c22.509-53.218 54.727-101.006 95.757-142.036s88.818-73.247 142.036-95.757C393.159-51.06 451.686-62.88 512-62.88s118.842 11.82 173.956 35.131c53.218 22.51 101.006 54.727 142.036 95.757s73.247 88.818 95.757 142.036C947.06 265.158 958.88 323.686 958.88 384s-11.82 118.841-35.131 173.956zM512 1.12c-211.121 0-382.88 171.759-382.88 382.88S300.879 766.88 512 766.88 894.88 595.121 894.88 384 723.121 1.12 512 1.12zM581.559 320.111l194.456-0.369c35.347 0 62.016 29.022 62.016 64.368s-26.669 63.433-62.016 63.433l-194.456 0.567H261.088c-35.346 0-64-28.654-64-64 0-35.347 28.654-64 64-64h320.471z"  horiz-adv-x="1024" />

    
    <glyph glyph-name="picture" unicode="&#58970;" d="M894.426 756.899H129.574c-35.29 0-64-28.71-64-64v-617.798c0-35.29 28.71-64 64-64h764.853c35.29 0 64 28.71 64 64V692.899c-0.001 35.29-28.711 64-64.001 64z m-764.795-64h764.738c0.02-0.017 0.041-0.038 0.058-0.057v-375.371L709.841 475.136c-10.001 8.543-24.729 8.543-34.73 0L511.689 335.549 379.893 515.276c-10.683 14.568-32.44 14.568-43.122 0L129.574 232.729V692.842a0.511 0.511 0 0 0 0.057 0.057z"  horiz-adv-x="1024" />

    
    <glyph glyph-name="search" unicode="&#58976;" d="M826.001 112.896L591.249 347.691c40.559 47.687 62.681 107.577 62.687 170.875 0.007 70.594-27.479 136.965-77.391 186.887-49.913 49.922-116.279 77.419-186.873 77.426h-0.024c-70.584 0-136.947-27.484-186.863-77.391-49.922-49.913-77.419-116.279-77.425-186.873-0.007-70.594 27.478-136.965 77.391-186.887 49.913-49.923 116.279-77.419 186.873-77.426h0.025c56.287 0 109.878 17.495 154.596 49.883l236.497-236.539c6.249-6.25 14.439-9.375 22.63-9.375 8.188 0 16.377 3.123 22.625 9.37 12.497 12.497 12.499 32.758 0.004 45.255zM389.629 318.303"  horiz-adv-x="1024" />

    
    <glyph glyph-name="search-o" unicode="&#58977;" d="M826.001 112.896L591.249 347.691c40.559 47.687 62.681 107.577 62.687 170.875 0.007 70.594-27.479 136.965-77.391 186.887-49.913 49.922-116.279 77.419-186.873 77.426h-0.024c-70.584 0-136.947-27.484-186.863-77.391-49.922-49.913-77.419-116.279-77.425-186.873-0.007-70.594 27.478-136.965 77.391-186.887 49.913-49.923 116.279-77.419 186.873-77.426h0.025c56.287 0 109.878 17.495 154.596 49.883l236.497-236.539c6.249-6.25 14.439-9.375 22.63-9.375 8.188 0 16.377 3.123 22.625 9.37 12.497 12.497 12.499 32.758 0.004 45.255zM389.647 318.303h-0.019c-53.499 0.005-103.793 20.843-141.62 58.676-37.826 37.833-58.654 88.132-58.649 141.631 0.005 53.499 20.843 103.793 58.676 141.62 37.831 37.824 88.117 58.65 141.612 58.65h0.019c110.439-0.01 200.279-89.868 200.269-200.307-0.005-53.499-20.843-103.794-58.676-141.62-37.83-37.824-88.116-58.652-141.612-58.65z"  horiz-adv-x="1024" />

    
    <glyph glyph-name="star" unicode="&#58982;" d="M539.978 794.278l114.291-231.579a31.201 31.201 0 0 1 23.492-17.068l255.563-37.135c25.591-3.719 35.809-35.167 17.292-53.218L765.688 275.019a31.2 31.2 0 0 1-8.973-27.616l43.655-254.53c4.371-25.488-22.38-44.924-45.27-32.89L526.519 80.156a31.197 31.197 0 0 1-29.037 0L268.899-40.017c-22.889-12.034-49.641 7.403-45.27 32.89l43.655 254.53a31.2 31.2 0 0 1-8.973 27.616L73.385 455.278c-18.518 18.05-8.299 49.499 17.292 53.218l255.563 37.135a31.201 31.201 0 0 1 23.492 17.068l114.291 231.579c11.443 23.19 44.511 23.19 55.955 0z"  horiz-adv-x="1024" />

    
    <glyph glyph-name="star-o" unicode="&#58983;" d="M512 706.357l84.878-171.982a95.183 95.183 0 0 1 71.68-52.078l189.793-27.579-137.336-133.87a95.181 95.181 0 0 1-27.379-84.264l32.421-189.027-169.754 89.245A95.565 95.565 0 0 1 512 147.739a95.558 95.558 0 0 1-44.3-10.936l-169.757-89.246 32.421 189.027a95.184 95.184 0 0 1-27.379 84.264l-137.336 133.87 189.793 27.579a95.184 95.184 0 0 1 71.68 52.078L512 706.357m0 105.313c-11.128 0-22.256-5.797-27.978-17.392L369.731 562.7a31.198 31.198 0 0 0-23.492-17.068L90.676 508.496c-25.591-3.719-35.809-35.168-17.291-53.218l184.927-180.259a31.2 31.2 0 0 0 8.973-27.616l-43.655-254.53c-3.459-20.167 12.564-36.544 30.745-36.544 4.796 0 9.747 1.141 14.524 3.653l228.582 120.173a31.191 31.191 0 0 0 29.038 0l228.582-120.173c4.779-2.513 9.727-3.653 14.524-3.653 18.179 0 34.204 16.378 30.745 36.544l-43.655 254.53a31.2 31.2 0 0 0 8.973 27.616l184.927 180.259c18.518 18.05 8.299 49.499-17.291 53.218l-255.563 37.136a31.201 31.201 0 0 0-23.492 17.068L539.978 794.278C534.256 805.873 523.128 811.67 512 811.67z"  horiz-adv-x="1024" />

    
    <glyph glyph-name="tag" unicode="&#58985;" d="M957.875 491.069l-11.859 270.539c-1.52 34.69-29.714 62.242-64.429 62.956l-270.744 5.603a65.843 65.843 0 0 1-48.463-19.814L87.562 324.431c-25.314-25.902-24.828-67.81 1.074-93.124L371.238-44.84c25.905-25.31 67.812-24.828 93.125 1.079l474.82 485.921a65.851 65.851 0 0 1 18.692 48.909zM827.794 616.347c-10.11-42.928-53.107-69.538-96.04-59.427s-69.537 53.112-59.427 96.04c10.111 42.933 53.107 69.538 96.04 59.427s69.537-53.107 59.427-96.04z"  horiz-adv-x="1024" />

    
    <glyph glyph-name="update" unicode="&#58990;" d="M621.461 220.958h-28.299v-178.88c0-17.6-14.4-32-32-32H437.363c-17.6 0-32 14.4-32 32v178.88h-32.211c-24.634 0-40.03 26.667-27.713 48L469.593 484c12.317 21.333 43.109 21.333 55.426 0l124.155-215.042c12.317-21.334-3.079-48-27.713-48zM958.99 395.993a830.82 830.82 0 0 1-0.051 6.39l-0.021 1.369a33.988 33.988 0 0 1-0.379 4.378c-0.136 5.652-0.248 11.446-0.248 16.018 0 61.18-24.707 118.63-69.57 161.768-44.521 42.809-103.627 66.385-166.43 66.385-9.129 0-18.313-0.526-27.476-1.571-22.103 29.633-50.251 54.559-82.368 72.787-39.661 22.509-84.846 34.406-130.669 34.406-51.873 0-102.133-14.986-145.345-43.337-36.917-24.221-67.086-57.04-88.069-95.617-47.595-7.828-91.255-30.54-124.459-65.06-37.974-39.478-58.887-90.919-58.887-144.848 0-2.714 0.004-4.623 0.008-6.351-0.001-0.072-0.007-0.142-0.008-0.214v-0.009c-0.002-0.144-0.003-0.29-0.003-0.434l-0.008-8.107c0.002-2.434 0.225-4.734 0.625-6.912 7.398-89.911 82.99-160.859 174.73-160.859h20.44c17.673 0 32 14.327 32 32s-14.327 32-32 32h-20.44c-61.287 0-111.229 49.866-111.331 111.18l-0.002 0.875c-0.005 1.86-0.009 3.85-0.009 6.833 0 76.592 62.772 141.769 142.908 148.38l18.652 1.539 7.803 17.011c32.862 71.642 104.85 117.933 183.398 117.933 69.774 0 133.688-35.49 170.967-94.935l11.775-18.776 21.718 4.421c11.956 2.434 24.086 3.668 36.053 3.668 94.841 0 172-73.639 172-164.153 0-7.508 0.252-17.275 0.464-25.295-1.437-59.99-51.183-108.679-111.202-108.679h-45.828c-17.673 0-32-14.327-32-32s14.327-32 32-32h45.828c46.123 0 89.724 17.922 122.771 50.464 29.603 29.15 47.628 66.962 51.612 107.676 0.667 2.701 1.042 5.609 1.057 8.73a552.32 552.32 0 0 1-0.006 2.946z"  horiz-adv-x="1024" />

    
    <glyph glyph-name="user" unicode="&#58991;" d="M512.279 608.209m-223.922 0a223.922 223.922 0 1 1 447.844 0 223.922 223.922 0 1 1-447.844 0ZM512.279 384.287c-219.028 0-398.507-182.354-414.671-413.777-1.288-18.442 13.449-34.068 31.935-34.068h765.471c18.487 0 33.223 15.627 31.935 34.068-16.164 231.422-195.643 413.777-414.67 413.777z"  horiz-adv-x="1024" />

    
    <glyph glyph-name="user-o" unicode="&#58992;" d="M512 767.345c42.717 0 82.877-16.635 113.082-46.84 30.205-30.205 46.84-70.365 46.84-113.082s-16.635-82.877-46.84-113.082C594.877 464.135 554.717 447.5 512 447.5s-82.877 16.635-113.082 46.84c-30.205 30.205-46.84 70.365-46.84 113.082s16.635 82.877 46.84 113.082c30.205 30.206 70.365 46.841 113.082 46.841m0 64c-123.669 0-223.922-100.254-223.922-223.923S388.331 383.5 512 383.5s223.922 100.254 223.922 223.922S635.669 831.345 512 831.345zM512 319.5c88.431 0 172.982-35.97 238.079-101.284 58.062-58.255 96.045-134.878 108.912-218.56H165.009c12.867 83.682 50.85 160.305 108.912 218.56C339.018 283.53 423.569 319.5 512 319.5m0 64c-219.028 0-398.507-182.354-414.671-413.777-1.288-18.442 13.448-34.068 31.935-34.068h765.471c18.487 0 33.223 15.627 31.935 34.068C910.507 201.146 731.028 383.5 512 383.5z"  horiz-adv-x="1024" />

    
    <glyph glyph-name="trash" unicode="&#58994;" d="M416.285 517.789c-17.673 0-32-14.327-32-32v-344.574c0-17.673 14.327-32 32-32s32 14.327 32 32V485.789c0 17.673-14.326 32-32 32zM597.407 517.789c-17.673 0-32-14.327-32-32v-344.574c0-17.673 14.327-32 32-32s32 14.327 32 32V485.789c0 17.673-14.327 32-32 32zM833.43 783.582H641.187V797.571c0 18.472-15.028 33.5-33.5 33.5H414.472c-18.472 0-33.5-15.028-33.5-33.5v-13.989H190.57c-19.851 0-36-16.149-36-36v-112.748c0-19.851 16.149-36 36-36h16.93c-12.358-22.526-17.819-49.862-15.203-78.221 0.014-0.15 0.029-0.301 0.045-0.451l52.619-493.881c2.274-23.978 13.394-46.381 31.33-63.107 18.147-16.924 41.295-26.244 65.181-26.244h339.733c23.875 0 47.028 9.313 65.193 26.226 17.948 16.711 29.1 39.096 31.419 63.055l53.66 493.886c0.017 0.153 0.032 0.306 0.047 0.459 2.67 28.38-2.752 55.737-15.089 78.279h16.996c19.851 0 36 16.149 36 36V747.582c-0.001 19.85-16.15 36-36.001 36z m-65.605-256.818l-53.655-493.84c-0.017-0.152-0.032-0.306-0.047-0.459-1.607-17.095-16.683-31.536-32.919-31.536H341.471c-16.208 0-31.23 14.415-32.804 31.479-0.014 0.15-0.029 0.301-0.045 0.45l-52.615 493.839c-1.799 20.027 3.513 38.979 14.229 50.728 6.272 6.878 13.546 10.365 21.62 10.365h440.288c8.06 0 15.313-3.479 21.558-10.339 10.683-11.734 15.955-30.67 14.123-50.687zM218.57 719.582h586.86v-56.748H218.57v56.748z"  horiz-adv-x="1024" />

    
    <glyph glyph-name="warning-circle-o" unicode="&#58996;" d="M920.462 559.462c-22.477 53.142-54.647 100.861-95.619 141.833-40.972 40.972-88.69 73.143-141.833 95.62-55.035 23.278-113.479 35.081-173.706 35.081-60.228 0-118.671-11.803-173.707-35.081-53.142-22.477-100.861-54.648-141.833-95.62-40.972-40.971-73.143-88.691-95.62-141.833-23.278-55.035-35.081-113.479-35.081-173.707 0-60.228 11.803-118.671 35.081-173.707 22.477-53.142 54.648-100.86 95.62-141.832 40.971-40.972 88.691-73.144 141.833-95.62 55.035-23.278 113.479-35.081 173.707-35.081 60.228 0 118.671 11.803 173.706 35.081 53.143 22.477 100.861 54.648 141.833 95.62s73.143 88.69 95.619 141.832c23.278 55.036 35.081 113.479 35.081 173.707 0 60.229-11.803 118.672-35.081 173.707zM509.304 3.516c-210.768 0-382.24 171.473-382.24 382.24s171.472 382.24 382.24 382.24 382.239-171.472 382.239-382.24-171.472-382.24-382.239-382.24zM542.6 180.563c-10.79 9.576-23.603 14.357-38.43 14.357-15.372 0-28.516-4.722-39.445-14.151-10.915-9.444-16.38-22.801-16.38-40.056 0-15.637 5.597-28.523 16.792-38.629 11.187-10.121 24.198-15.166 39.034-15.166 14.291 0 26.964 4.575 38.026 13.739 11.055 9.179 16.586 22.521 16.586 40.056-0.002 16.99-5.4 30.274-16.183 39.85zM502.956 695.332c-16.181 0-29.332-5.811-39.438-17.402-10.121-11.592-15.174-28.185-15.174-49.765v-315.931c0-21.845 5.053-38.291 15.174-49.353 10.106-11.062 23.257-16.593 39.438-16.593s29.531 5.531 40.049 16.593c10.518 11.062 15.777 26.434 15.777 46.117v319.167c0 22.124-5.259 38.835-15.777 50.162s-23.868 17.005-40.049 17.005z"  horiz-adv-x="1024" />

    
    <glyph glyph-name="warning-circle" unicode="&#58997;" d="M920.462 559.462c-22.477 53.142-54.647 100.861-95.619 141.833-40.972 40.972-88.69 73.143-141.833 95.62-55.035 23.278-113.479 35.081-173.706 35.081-60.228 0-118.671-11.803-173.707-35.081-53.142-22.477-100.861-54.648-141.833-95.62-40.972-40.971-73.143-88.691-95.62-141.833-23.278-55.035-35.081-113.479-35.081-173.707 0-60.228 11.803-118.671 35.081-173.707 22.477-53.142 54.648-100.86 95.62-141.832 40.971-40.972 88.691-73.144 141.833-95.62 55.035-23.278 113.479-35.081 173.707-35.081 60.228 0 118.671 11.803 173.706 35.081 53.143 22.477 100.861 54.648 141.833 95.62s73.143 88.69 95.619 141.832c23.278 55.036 35.081 113.479 35.081 173.707 0 60.229-11.803 118.672-35.081 173.707zM542.196 100.657c-11.062-9.164-23.735-13.739-38.026-13.739-14.835 0-27.846 5.046-39.034 15.166-11.194 10.106-16.792 22.992-16.792 38.629 0 17.255 5.465 30.612 16.38 40.056 10.93 9.429 24.073 14.151 39.445 14.151 14.828 0 27.641-4.781 38.43-14.357 10.783-9.576 16.181-22.86 16.181-39.85 0.001-17.535-5.53-30.877-16.584-40.056zM558.781 308.998c0-19.682-5.259-35.054-15.777-46.117-10.518-11.062-23.867-16.593-40.049-16.593-16.181 0-29.332 5.531-39.438 16.593-10.121 11.062-15.174 27.508-15.174 49.353v315.931c0 21.58 5.053 38.173 15.174 49.765 10.106 11.592 23.257 17.402 39.438 17.402s29.531-5.678 40.049-17.005c10.518-11.327 15.777-28.038 15.777-50.162v-319.167z"  horiz-adv-x="1024" />

    
    <glyph glyph-name="warning-triangel" unicode="&#58998;" d="M955.822 38.075l-417.193 722.598c-11.835 20.5-41.424 20.5-53.259 0l-417.192-722.598c-11.835-20.5 2.96-46.123 26.631-46.123h834.383c23.672 0 38.465 25.624 26.63 46.123zM517.125 57.543c-33.966 0-61.498 27.534-61.498 61.498 0 33.966 27.532 61.498 61.498 61.498s61.498-27.532 61.498-61.498c0-33.964-27.532-61.498-61.498-61.498zM578.623 288.159c0-33.962-27.536-61.498-61.498-61.498s-61.498 27.536-61.498 61.498v245.991c0 33.962 27.536 61.498 61.498 61.498s61.498-27.536 61.498-61.498v-245.991z"  horiz-adv-x="1024" />

    
    <glyph glyph-name="angle-double-down" unicode="&#59005;" d="M512 103.398L229.334 386.064c-12.497 12.497-32.758 12.497-45.255 0s-12.497-32.758 0-45.255l305.294-305.294c12.497-12.497 32.758-12.497 45.254 0l305.294 305.294c6.249 6.249 9.373 14.438 9.373 22.627s-3.124 16.379-9.373 22.627c-12.496 12.497-32.758 12.497-45.255 0L512 103.398zM512 450.223L229.334 732.889c-12.497 12.497-32.758 12.497-45.255 0-12.497-12.496-12.497-32.758 0-45.254l305.294-305.294c12.497-12.497 32.758-12.497 45.254 0l305.294 305.294c6.249 6.248 9.373 14.438 9.373 22.627s-3.124 16.379-9.373 22.627c-12.496 12.497-32.758 12.497-45.255 0L512 450.223z"  horiz-adv-x="1024" />

    
    <glyph glyph-name="angle-double-right" unicode="&#59006;" d="M792.805 384.202L510.138 101.536c-12.497-12.497-12.497-32.758 0-45.255s32.758-12.497 45.255 0l305.294 305.294c12.497 12.497 12.497 32.758 0 45.254L555.393 712.123c-6.249 6.249-14.438 9.373-22.627 9.373-8.189 0-16.379-3.124-22.627-9.373-12.497-12.496-12.497-32.758 0-45.255l282.666-282.666zM445.979 384.202L163.314 101.536c-12.497-12.497-12.497-32.758 0-45.255 12.496-12.497 32.758-12.497 45.254 0l305.294 305.294c12.497 12.497 12.497 32.758 0 45.254L208.567 712.123c-6.248 6.249-14.438 9.373-22.627 9.373s-16.379-3.124-22.627-9.373c-12.497-12.496-12.497-32.758 0-45.255l282.666-282.666z"  horiz-adv-x="1024" />

    
    <glyph glyph-name="angle-double-left" unicode="&#59007;" d="M202.841 384.202l282.667 282.667c12.497 12.497 12.497 32.758 0 45.255s-32.758 12.497-45.255 0L134.958 406.83c-12.497-12.497-12.497-32.758 0-45.254l305.294-305.294c6.249-6.249 14.438-9.373 22.627-9.373s16.379 3.124 22.627 9.373c12.497 12.496 12.497 32.758 0 45.255L202.841 384.202zM549.666 384.202l282.666 282.667c12.497 12.497 12.497 32.758 0 45.255-12.496 12.497-32.758 12.497-45.254 0L481.784 406.83c-12.497-12.497-12.497-32.758 0-45.254l305.294-305.294c6.248-6.249 14.438-9.373 22.627-9.373s16.379 3.124 22.627 9.373c12.497 12.496 12.497 32.758 0 45.255L549.666 384.202z"  horiz-adv-x="1024" />

    
    <glyph glyph-name="angle-double-up" unicode="&#59008;" d="M512 665.007L794.666 382.34c12.497-12.497 32.758-12.497 45.255 0s12.497 32.758 0 45.255L534.627 732.889c-12.497 12.497-32.758 12.497-45.254 0L184.079 427.595c-6.249-6.249-9.373-14.438-9.373-22.627s3.124-16.379 9.373-22.627c12.496-12.497 32.758-12.497 45.255 0L512 665.007zM512 318.182l282.666-282.666c12.497-12.497 32.758-12.497 45.255 0 12.497 12.496 12.497 32.758 0 45.254L534.627 386.064c-12.497 12.497-32.758 12.497-45.254 0L184.079 80.77c-6.249-6.248-9.373-14.438-9.373-22.627s3.124-16.379 9.373-22.627c12.496-12.497 32.758-12.497 45.255 0L512 318.182z"  horiz-adv-x="1024" />

    
    <glyph glyph-name="download2" unicode="&#59018;" d="M890.463 285.042c-17.673 0-32-14.327-32-32v-157.693c0-17.136-13.941-31.077-31.077-31.077h-630.772c-17.136 0-31.077 13.941-31.077 31.077v157.693c0 17.673-14.327 32-32 32s-32-14.327-32-32v-157.693c0-52.426 42.651-95.077 95.077-95.077h630.771c52.426 0 95.077 42.651 95.077 95.077v157.693c0.001 17.673-14.326 32-31.999 32zM349.005 512.18h51.574v192.471c0 34.694 28.385 63.077 63.077 63.077h101.426c34.692 0 63.077-28.384 63.077-63.077v-192.471h46.834c24.278 0 39.45-26.283 27.311-47.308l-162.993-282.311c-12.139-21.028-42.484-21.028-54.627 0l-162.99 282.311c-12.139 21.025 3.034 47.308 27.311 47.308z"  horiz-adv-x="1024" />

    
    <glyph glyph-name="female" unicode="&#59020;" d="M931.585 829.772H530.366c-17.673 0-32-14.327-32-32s14.327-32 32-32h323.423a32.465 32.465 0 0 1-2.38-2.154L560.203 472.413a32.251 32.251 0 0 1-3.049-3.531c-54.487 46.96-123.22 72.578-195.893 72.578-80.289 0-155.771-31.266-212.544-88.039S60.679 321.166 60.679 240.878c0-80.289 31.266-155.772 88.039-212.545 56.772-56.771 132.255-88.038 212.544-88.038s155.771 31.267 212.544 88.038c56.771 56.772 88.038 132.256 88.038 212.545 0 66.695-21.595 130.063-61.444 182.156a32.136 32.136 0 0 1 5.057 4.124l291.206 291.206a32.138 32.138 0 0 1 2.922 3.367v-325.177c0-17.673 14.327-32 32-32s32 14.327 32 32V797.772c0 17.674-14.327 32-32 32zM528.551 73.589c-92.244-92.243-242.335-92.245-334.579 0-44.685 44.684-69.293 104.095-69.293 167.289 0 63.193 24.609 122.604 69.293 167.289 46.122 46.122 106.706 69.183 167.289 69.183s121.167-23.061 167.289-69.183c92.244-92.244 92.244-242.335 0.001-334.578z m368.113 690.03a32.478 32.478 0 0 1-2.381 2.154h5.302v-5.519a32.432 32.432 0 0 1-2.921 3.365z"  horiz-adv-x="1024" />

    
    <glyph glyph-name="link1" unicode="&#59031;" d="M892.438 224.958l-191.5 191.501c-12.063 12.063-28.135 18.707-45.254 18.707-17.12 0-33.192-6.644-45.255-18.707l-53.604-53.604-82.356 82.356 53.603 53.604c12.063 12.063 18.707 28.135 18.707 45.255 0 17.121-6.644 33.192-18.707 45.255l-191.5 191.5c-24.953 24.953-65.556 24.953-90.51 0L96.343 631.105C84.28 619.042 77.636 602.97 77.636 585.85s6.644-33.192 18.707-45.255l191.5-191.501c12.477-12.476 28.865-18.714 45.254-18.714s32.778 6.238 45.255 18.714l50.862 50.862L511.57 317.6l-50.861-50.861c-12.063-12.063-18.707-28.135-18.707-45.255s6.643-33.191 18.706-45.256l191.501-191.5v0.001c12.063-12.063 28.135-18.707 45.254-18.707 17.12 0 33.192 6.644 45.255 18.707l149.72 149.72c12.063 12.063 18.707 28.135 18.707 45.255s-6.644 33.192-18.707 45.254zM333.139 394.39a0.56 0.56 0 0 0-0.082 0L141.638 585.81a0.547 0.547 0 0 0 0 0.081L291.277 735.53a0.547 0.547 0 0 0 0.081 0l191.419-191.42a0.547 0.547 0 0 0 0-0.081l-53.563-53.563-52.647 52.647c-12.497 12.497-32.758 12.497-45.255 0s-12.497-32.758 0-45.255l52.647-52.647-50.82-50.821z m514.004-214.727L697.504 30.024a0.547 0.547 0 0 0-0.081 0L506.004 221.443a0.547 0.547 0 0 0 0 0.081l50.821 50.821 42.24-42.24c6.248-6.248 14.438-9.372 22.627-9.372s16.379 3.124 22.628 9.372c12.496 12.497 12.496 32.759 0 45.255l-42.24 42.24 53.563 53.564a0.547 0.547 0 0 0 0.081 0l191.419-191.42a0.547 0.547 0 0 0 0-0.081z"  horiz-adv-x="1024" />

    
    <glyph glyph-name="option" unicode="&#59036;" d="M780.6 309.7h-538.5c-33.4 0-51-39.6-28.5-64.4l269.2-297.1c15.3-16.9 41.8-16.9 57.1 0l269.2 297.1c22.4 24.8 4.9 64.4-28.5 64.4zM242.1 458h538.4c33.4 0 51 39.6 28.5 64.4l-269.1 297.1c-15.3 16.9-41.8 16.9-57.1 0l-269.2-297.1c-22.5-24.7-4.9-64.4 28.5-64.4z"  horiz-adv-x="1024" />

    
    <glyph glyph-name="rank" unicode="&#59042;" d="M352.075 829.772c-17.673 0-32-14.327-32-32v-734.681L202.981 219.927c-10.573 14.161-30.624 17.072-44.786 6.497-14.162-10.573-17.071-30.624-6.498-44.786l174.691-233.981c0.367-0.493 0.751-0.974 1.145-1.445 0.135-0.162 0.275-0.318 0.413-0.477a29.614 29.614 0 0 1 1.865-1.968c0.233-0.227 0.466-0.454 0.705-0.672 0.115-0.104 0.234-0.204 0.35-0.307a32.103 32.103 0 0 1 1.841-1.516c0.084-0.064 0.166-0.131 0.251-0.195 0.293-0.219 0.592-0.427 0.892-0.634 0.172-0.119 0.342-0.239 0.516-0.354a32.888 32.888 0 0 1 3.191-1.862c0.17-0.086 0.338-0.178 0.509-0.261 1.057-0.516 2.147-0.972 3.265-1.371l0.07-0.023a31.78 31.78 0 0 1 3.333-0.975l0.248-0.057c0.488-0.111 0.981-0.209 1.478-0.297 0.102-0.018 0.203-0.037 0.305-0.054 0.471-0.079 0.945-0.145 1.422-0.203 0.122-0.015 0.244-0.033 0.367-0.047 0.448-0.049 0.899-0.085 1.352-0.115 0.146-0.01 0.291-0.025 0.438-0.033 0.443-0.024 0.889-0.033 1.336-0.038 0.14-0.002 0.279-0.012 0.419-0.012 0.063 0 0.126 0.007 0.188 0.007a35.957 35.957 0 0 1 2.617 0.127c0.706 0.062 1.407 0.14 2.099 0.247 0.114 0.018 0.228 0.042 0.342 0.061a31.627 31.627 0 0 1 1.906 0.378c0.167 0.038 0.334 0.074 0.501 0.116a31.37 31.37 0 0 1 2.101 0.594c0.133 0.043 0.265 0.09 0.397 0.134 0.688 0.231 1.366 0.48 2.032 0.755 0.051 0.021 0.103 0.039 0.154 0.061a31.407 31.407 0 0 1 2.119 0.989c0.112 0.057 0.223 0.113 0.334 0.171a32.036 32.036 0 0 1 2.049 1.169c0.071 0.044 0.141 0.091 0.213 0.136a32.174 32.174 0 0 1 3.324 2.404c0.183 0.151 0.357 0.309 0.535 0.464 0.208 0.18 0.418 0.357 0.621 0.542 0.294 0.267 0.577 0.543 0.859 0.819 0.079 0.078 0.162 0.153 0.24 0.232 0.322 0.322 0.633 0.652 0.939 0.985 0.036 0.04 0.074 0.078 0.111 0.118 0.319 0.351 0.627 0.708 0.927 1.071l0.076 0.089c0.297 0.36 0.583 0.726 0.862 1.097l0.096 0.126c0.262 0.352 0.514 0.709 0.76 1.069 0.05 0.073 0.102 0.146 0.151 0.219 0.22 0.327 0.43 0.659 0.637 0.993 0.074 0.119 0.149 0.237 0.221 0.358 0.173 0.289 0.339 0.58 0.502 0.874 0.099 0.178 0.199 0.355 0.295 0.534 0.127 0.238 0.248 0.478 0.368 0.719 0.122 0.244 0.244 0.487 0.36 0.734 0.085 0.182 0.166 0.365 0.248 0.548 0.138 0.309 0.274 0.619 0.403 0.932 0.052 0.127 0.101 0.255 0.151 0.383 0.146 0.369 0.287 0.74 0.419 1.115l0.08 0.236c0.144 0.418 0.281 0.839 0.407 1.265 0.013 0.045 0.025 0.091 0.039 0.136 0.132 0.451 0.255 0.904 0.368 1.363l0.023 0.098c0.112 0.463 0.215 0.929 0.307 1.4l0.025 0.139c0.085 0.451 0.164 0.904 0.231 1.361 0.015 0.102 0.025 0.204 0.039 0.306 0.054 0.399 0.106 0.8 0.145 1.204 0.025 0.254 0.039 0.51 0.058 0.765 0.019 0.254 0.043 0.507 0.055 0.763 0.028 0.558 0.041 1.117 0.04 1.676V797.772c0.002 17.674-14.326 32-31.998 32zM859.176 582.877L684.494 816.844a32.8 32.8 0 0 1-1.043 1.33c-0.15 0.182-0.308 0.355-0.461 0.533-0.181 0.208-0.358 0.42-0.544 0.623a33.373 33.373 0 0 1-0.819 0.859c-0.078 0.079-0.153 0.161-0.231 0.239a31.345 31.345 0 0 1-0.989 0.943l-0.113 0.106a31.696 31.696 0 0 1-1.08 0.935l-0.078 0.066c-0.364 0.3-0.734 0.589-1.109 0.871l-0.113 0.087a32.276 32.276 0 0 1-1.083 0.771l-0.203 0.14a30.701 30.701 0 0 1-1.008 0.646c-0.114 0.071-0.228 0.143-0.343 0.212-0.293 0.176-0.59 0.344-0.888 0.51-0.173 0.097-0.345 0.194-0.52 0.287a33.799 33.799 0 0 1-0.734 0.376c-0.239 0.12-0.477 0.239-0.719 0.353-0.186 0.087-0.374 0.17-0.562 0.254-0.304 0.136-0.609 0.27-0.918 0.397-0.132 0.054-0.265 0.104-0.397 0.157a32.352 32.352 0 0 1-1.102 0.414l-0.248 0.084a30.995 30.995 0 0 1-1.253 0.403l-0.147 0.042a32.463 32.463 0 0 1-1.353 0.365l-0.104 0.024a33.54 33.54 0 0 1-1.395 0.306l-0.14 0.025a32.19 32.19 0 0 1-1.361 0.231c-0.099 0.015-0.199 0.024-0.298 0.038a30.41 30.41 0 0 1-1.213 0.146c-0.244 0.024-0.489 0.037-0.734 0.056-0.265 0.02-0.528 0.045-0.795 0.058a32.34 32.34 0 0 1-3.236-0.001l-0.045-0.003c-0.512-0.027-1.024-0.065-1.535-0.117-0.119-0.012-0.237-0.029-0.356-0.043-0.401-0.045-0.802-0.093-1.202-0.153-0.179-0.027-0.355-0.061-0.532-0.09-0.336-0.056-0.671-0.112-1.005-0.18-0.216-0.043-0.43-0.094-0.645-0.142-0.292-0.065-0.584-0.128-0.874-0.202-0.243-0.061-0.484-0.13-0.725-0.197-0.258-0.072-0.517-0.141-0.773-0.22-0.266-0.081-0.527-0.17-0.79-0.258-0.229-0.076-0.458-0.15-0.686-0.232-0.286-0.103-0.568-0.214-0.85-0.324-0.201-0.079-0.403-0.154-0.602-0.237-0.308-0.128-0.611-0.265-0.914-0.402-0.17-0.077-0.342-0.151-0.511-0.231-0.34-0.161-0.674-0.332-1.007-0.505-0.129-0.067-0.26-0.13-0.389-0.199-0.388-0.208-0.77-0.426-1.148-0.65-0.073-0.043-0.147-0.083-0.22-0.127a32.07 32.07 0 0 1-3.946-2.793c-0.196-0.162-0.383-0.332-0.575-0.498-0.194-0.169-0.392-0.334-0.582-0.508-0.299-0.272-0.587-0.552-0.874-0.833-0.075-0.073-0.152-0.144-0.226-0.218a32.81 32.81 0 0 1-0.948-0.994l-0.101-0.108c-0.321-0.353-0.631-0.714-0.934-1.078-0.023-0.028-0.047-0.054-0.069-0.082-0.299-0.363-0.588-0.732-0.869-1.106l-0.089-0.116a31.83 31.83 0 0 1-0.765-1.076l-0.148-0.214c-0.22-0.328-0.432-0.661-0.638-0.996-0.073-0.118-0.148-0.236-0.22-0.355-0.174-0.289-0.34-0.582-0.504-0.876-0.099-0.177-0.198-0.353-0.294-0.532-0.127-0.238-0.248-0.479-0.369-0.72-0.122-0.244-0.244-0.487-0.36-0.734a26.87 26.87 0 0 1-0.247-0.547c-0.138-0.309-0.274-0.619-0.403-0.933-0.052-0.127-0.101-0.255-0.151-0.383-0.146-0.369-0.287-0.739-0.419-1.115-0.028-0.079-0.053-0.158-0.08-0.237-0.144-0.418-0.28-0.839-0.407-1.265l-0.038-0.134c-0.132-0.451-0.256-0.906-0.368-1.365l-0.022-0.096c-0.112-0.464-0.215-0.93-0.307-1.401l-0.025-0.14c-0.085-0.45-0.164-0.903-0.23-1.359-0.015-0.103-0.025-0.207-0.039-0.311-0.054-0.398-0.106-0.796-0.145-1.199-0.025-0.259-0.04-0.519-0.059-0.778-0.018-0.25-0.042-0.498-0.055-0.75a32.344 32.344 0 0 1-0.04-1.678v-830.949c0-17.673 14.327-32 32-32s32 14.327 32 32V701.423l117.094-156.834c6.283-8.417 15.913-12.858 25.667-12.858a31.863 31.863 0 0 1 19.119 6.36c14.155 10.573 17.064 30.625 6.491 44.786z"  horiz-adv-x="1024" />

    
    <glyph glyph-name="upload" unicode="&#59054;" d="M890.463 285.042c-17.673 0-32-14.327-32-32v-157.693c0-17.136-13.941-31.077-31.077-31.077h-630.772c-17.136 0-31.077 13.941-31.077 31.077v157.693c0 17.673-14.327 32-32 32s-32-14.327-32-32v-157.693c0-52.426 42.651-95.077 95.077-95.077h630.771c52.426 0 95.077 42.651 95.077 95.077v157.693c0.001 17.673-14.326 32-31.999 32zM349.005 422.338h51.574v-192.471c0-34.694 28.385-63.077 63.077-63.077h101.426c34.692 0 63.077 28.384 63.077 63.077v192.471h46.834c24.278 0 39.45 26.283 27.311 47.308l-162.993 282.311c-12.139 21.028-42.484 21.028-54.627 0l-162.99-282.311c-12.139-21.024 3.034-47.308 27.311-47.308z"  horiz-adv-x="1024" />

    
    <glyph glyph-name="yuren" unicode="&#59063;" d="M661.596 682.965c-89.397 0-169.615-39.25-224.4-101.442-38.348 26.173-84.699 41.486-134.631 41.486-132.065 0-239.125-107.06-239.125-239.125S170.5 144.758 302.565 144.758c49.988 0 96.386 15.348 134.759 41.575 54.783-62.108 134.945-101.298 224.272-101.298 165.114 0 298.965 133.851 298.965 298.965S826.709 682.965 661.596 682.965z m168.908-468.832c-45.292-45.29-105.509-70.233-169.56-70.233s-124.269 24.943-169.56 70.234c-18.672 18.672-33.876 39.886-45.309 62.856-32.669-43.746-84.838-72.121-143.511-72.121-98.709 0-179.014 80.305-179.014 179.015 0 98.709 80.305 179.015 179.014 179.015 48.038 0 93.139-18.768 126.997-52.848 11.638-11.714 11.576-30.645-0.138-42.284s-30.644-11.577-42.284 0.138c-22.548 22.696-52.584 35.195-84.575 35.195-65.736 0-119.215-53.48-119.215-119.216 0-65.736 53.48-119.216 119.215-119.216 62.383 0 113.722 48.166 118.797 109.261a245.687 245.687 0 0 0-0.211 9.765c0 13.567 9.039 25.017 21.422 28.673a29.862 29.862 0 0 0 9.108 1.418c16.513 0 29.899-13.387 29.899-29.899 0-3.557-0.116-7.087-0.322-10.593 5.408-94.426 83.93-169.592 179.687-169.592 99.249 0 179.994 80.745 179.994 179.994s-80.745 179.994-179.994 179.994c-48.085 0-93.291-18.727-127.288-52.732-11.675-11.678-30.606-11.68-42.284-0.004-11.677 11.675-11.679 30.607-0.004 42.284 45.293 45.301 105.517 70.25 169.577 70.25 64.051 0 124.268-24.943 169.559-70.234s70.234-105.508 70.234-169.559c0-64.052-24.943-124.27-70.234-169.561z"  horiz-adv-x="1024" />

    
    <glyph glyph-name="eye-close" unicode="&#59064;" d="M811.913 60.936c-7.531 0-15.072 2.803-20.923 8.443L188.337 650.184c-11.992 11.557-12.345 30.648-0.787 42.641 11.558 11.992 30.648 12.345 42.641 0.787l602.653-580.805c11.993-11.557 12.345-30.648 0.787-42.641-5.919-6.142-13.813-9.23-21.718-9.23zM631.56 345.794a128.545 128.545 0 0 1 5.562 35.71c1.003 70.944-55.696 129.268-126.64 130.271-15.362 0.217-30.129-2.275-43.854-7.028L631.56 345.794zM385.792 420.904a128.512 128.512 0 0 1-5.58-35.769c-1.003-70.944 55.696-129.268 126.64-130.271 15.384-0.217 30.172 2.282 43.913 7.048L385.792 420.904zM415.791 553.741c33.197 6.349 67.285 9.389 101.842 8.9 144.507-2.042 281.152-66.525 374.898-176.915 0.349-0.41 0.333-1.055-0.036-1.5-46.167-55.621-102.603-99.719-165.401-130.502l48.569-46.809c63.14 34.328 120.106 81.048 166.077 136.435 20.261 24.409 20.081 59.654-0.427 83.803-51.714 60.895-114.262 109.28-185.907 143.811-74.21 35.768-153.904 54.498-236.87 55.67-54.01 0.773-106.762-5.919-157.699-19.933l54.954-52.96zM602.555 211.998a503.631 503.631 0 0 0-95.648-9.135c-2.392 0-4.811 0.017-7.207 0.051-144.506 2.041-281.151 66.524-374.898 176.915-0.349 0.411-0.333 1.057 0.036 1.502 46.36 55.854 103.085 100.084 166.207 130.884l-48.608 46.845C178.99 524.695 121.75 477.817 75.592 422.206c-20.26-24.41-20.08-59.654 0.427-83.804 51.714-60.896 114.262-109.28 185.907-143.812 74.21-35.769 153.905-54.498 236.87-55.671 2.775-0.039 5.533-0.059 8.301-0.059 51.441 0 101.711 6.797 150.325 20.26l-54.867 52.878z"  horiz-adv-x="1024" />

    
    <glyph glyph-name="f-audio" unicode="&#59070;" d="M867.882 700.118l-167.764 167.764A96 96 0 0 1 632.236 896H224C170.98 896 128 853.02 128 800v-832c0-53.02 42.98-96 96-96h576c53.02 0 96 42.98 96 96V632.236a96 96 0 0 1-28.118 67.882zM792.236 640H640V792.236L792.236 640zM224-32V800h320v-208c0-26.51 21.49-48 48-48h208v-576H224z m288 152.048c0-21.382-25.852-32.09-40.97-16.97L400 175.028h-56c-13.254 0-24 10.746-24 24v112c0 13.254 10.746 24 24 24h56l71.03 73.894c15.12 15.12 40.97 4.412 40.97-16.97v-271.904z m82.402 94.26c18.102 18.594 18.12 48.266 0.002 66.878-44.298 45.504 24.47 112.492 68.79 66.962 54.396-55.88 54.424-144.888 0.002-200.802-43.586-44.772-113.894 20.63-68.794 66.962z"  horiz-adv-x="1024" />

    
    <glyph glyph-name="f-archive" unicode="&#59071;" d="M867.882 700.118l-167.764 167.764A96 96 0 0 1 632.236 896H224C170.98 896 128 853.02 128 800v-832c0-53.02 42.98-96 96-96h576c53.02 0 96 42.98 96 96V632.236a96 96 0 0 1-28.118 67.882zM640 792.236L792.236 640H640V792.236zM800-32H224V800h159.428v-32h64V800H544v-208c0-26.51 21.49-48 48-48h208v-576zM512.54 704h-64V768h64v-64z m-64 0v-64h-64V704h64z m0-128v-64h-64v64h64z m64 0h-64v64h64v-64z m3.818-211.356A24 24 0 0 1 492.812 384H448.54v64h-64v-64l-39.38-194.212C331.978 124.778 381.668 64 448 64c66.104 0 115.742 60.384 102.952 125.24l-34.594 175.404zM448.54 115.854c-35.836 0-64.888 24.21-64.888 54.072 0 29.864 29.05 54.072 64.888 54.072s64.888-24.21 64.888-54.072c0-29.862-29.052-54.072-64.888-54.072z m64 332.146h-64v64h64v-64z"  horiz-adv-x="1024" />

    
    <glyph glyph-name="f-file" unicode="&#59072;" d="M867.655536 700.038274L699.888303 867.805507C681.891818 885.801992 657.496583 896 632.101543 896H223.981254C170.991603 895.800039 128 852.808436 128 799.818785v-831.837531c0-52.98965 42.991603-95.981254 95.981254-95.981254h575.887522c52.98965 0 95.981254 42.991603 95.981253 95.981254V632.051552c0 25.39504-10.198008 49.990236-28.194493 67.986722zM792.070299 639.850029H639.90002V792.020309l152.170279-152.17028zM223.981254-32.018746V799.818785h319.937512v-207.959383c0-26.594806 21.395821-47.990627 47.990627-47.990626h207.959383v-575.887522H223.981254z"  horiz-adv-x="1024" />

    
    <glyph glyph-name="f-image" unicode="&#59073;" d="M867.655536 700.038274L699.888303 867.805507C681.891818 885.801992 657.496583 896 632.101543 896H223.981254C170.991603 895.800039 128 852.808436 128 799.818785v-831.837531c0-52.98965 42.991603-95.981254 95.981254-95.981254h575.887522c52.98965 0 95.981254 42.991603 95.981253 95.981254V632.051552c0 25.39504-10.198008 49.990236-28.194493 67.986722zM792.070299 639.850029H639.90002V792.020309l152.170279-152.17028zM223.981254-32.018746V799.818785h319.937512v-207.959383c0-26.594806 21.395821-47.990627 47.990627-47.990626h207.959383v-575.887522H223.981254z m63.987502 95.981253h447.912517V319.912517l-46.990822 46.990822c-9.398164 9.398164-24.595196 9.398164-33.993361 0L479.931263 191.937512l-78.984573 78.984574c-9.398164 9.398164-24.595196 9.398164-33.993361 0L287.968756 191.937512v-127.975005z m95.981254 479.906269c-52.98965 0-95.981254-42.991603-95.981254-95.981254s42.991603-95.981254 95.981254-95.981254 95.981254 42.991603 95.981253 95.981254-42.991603 95.981254-95.981253 95.981254z"  horiz-adv-x="1024" />

    
    <glyph glyph-name="f-pdf" unicode="&#59074;" d="M867.655536 700.038274L699.888303 867.805507C681.891818 885.801992 657.496583 896 632.101543 896H223.981254C170.991603 895.800039 128 852.808436 128 799.818785v-831.837531c0-52.98965 42.991603-95.981254 95.981254-95.981254h575.887522c52.98965 0 95.981254 42.991603 95.981253 95.981254V632.051552c0 25.39504-10.198008 49.990236-28.194493 67.986722zM792.070299 639.850029H639.90002V792.020309l152.170279-152.17028zM223.981254-32.018746V799.818785h319.937512v-207.959383c0-26.594806 21.395821-47.990627 47.990627-47.990626h207.959383v-575.887522H223.981254z m500.302284 287.343878c-24.395235 23.995313-93.981644 17.396602-128.774848 12.997461-34.393283 20.995899-57.388791 49.990236-73.585628 92.581918 7.798477 32.193712 20.196055 81.184144 10.797891 111.978129-8.39836 52.389768-75.585237 47.190783-85.183363 11.797696-8.798282-32.193712-0.799844-76.984964 13.997266-134.173794-19.996095-47.790666-49.790275-111.978129-70.786174-148.770943-39.992189-20.595977-93.981644-52.389768-101.980082-92.381957-6.598711-31.593829 51.989846-110.378442 152.170279 62.387815 44.791252 14.79711 93.581722 32.993556 136.773287 40.19215 37.792619-20.396016 81.983988-33.993361 111.578207-33.993361 50.990041 0 55.989065 56.388987 34.993165 77.384886z m-396.122632-155.569615c10.198008 27.394649 48.990432 58.988479 60.788127 69.98633-37.99258-60.588166-60.788127-71.386057-60.788127-69.98633z m163.168131 381.125561c14.79711 0 13.397383-64.187463 3.599297-81.584066-8.798282 27.794571-8.598321 81.584066-3.599297 81.584066z m-48.79047-273.146651c19.396212 33.7934 35.99297 73.98555 49.390353 109.378637 16.596758-30.194103 37.792619-54.389377 60.188245-70.986136-41.591877-8.598321-77.784808-26.194884-109.578598-38.392501z m263.148603 9.998047s-9.998047-11.997657-74.585432 15.596954c70.186292 5.198985 81.784027-10.797891 74.585432-15.596954z"  horiz-adv-x="1024" />

    
    <glyph glyph-name="f-excel" unicode="&#59075;" d="M867.655536 700.038274L699.888303 867.805507C681.891818 885.801992 657.496583 896 632.101543 896H223.981254C170.991603 895.800039 128 852.808436 128 799.818785v-831.837531c0-52.98965 42.991603-95.981254 95.981254-95.981254h575.887522c52.98965 0 95.981254 42.991603 95.981253 95.981254V632.051552c0 25.39504-10.198008 49.990236-28.194493 67.986722zM792.070299 639.850029H639.90002V792.020309l152.170279-152.17028zM223.981254-32.018746V799.818785h319.937512v-207.959383c0-26.594806 21.395821-47.990627 47.990627-47.990626h207.959383v-575.887522H223.981254z m423.917203 479.906268h-57.588752c-8.798282 0-16.796719-4.799063-20.995899-12.59754-35.99297-66.187073-44.39133-84.783441-57.18883-115.377465-27.794571 58.188635-13.797305 34.593244-57.188831 115.377465-4.19918 7.798477-12.397579 12.59754-21.19586 12.59754H375.951572c-18.596368 0-29.994142-19.996095-20.795938-35.99297l92.581917-155.969537-92.581917-155.969538c-9.398164-15.996876 2.19957-35.99297 20.795938-35.99297h57.788713c8.798282 0 16.796719 4.799063 20.995899 12.59754 43.391525 79.984378 45.991017 89.982425 57.188831 115.377465 29.794181-60.388205 11.797696-31.79379 57.18883-115.377465 4.19918-7.798477 12.397579-12.59754 21.19586-12.59754H647.898457c18.596368 0 29.994142 19.996095 20.795939 35.99297L575.912517 255.925015c1.399727 2.19957 60.588166 100.980277 92.581918 155.969537 9.398164 15.996876-2.19957 35.99297-20.595978 35.99297z"  horiz-adv-x="1024" />

    
    <glyph glyph-name="f-powerpoint" unicode="&#59076;" d="M867.655536 700.038274L699.888303 867.805507C681.891818 885.801992 657.496583 896 632.101543 896H223.981254C170.991603 895.800039 128 852.808436 128 799.818785v-831.837531c0-52.98965 42.991603-95.981254 95.981254-95.981254h575.887522c52.98965 0 95.981254 42.991603 95.981253 95.981254V632.051552c0 25.39504-10.198008 49.990236-28.194493 67.986722zM792.070299 639.850029H639.90002V792.020309l152.170279-152.17028zM223.981254-32.018746V799.818785h319.937512v-207.959383c0-26.594806 21.395821-47.990627 47.990627-47.990626h207.959383v-575.887522H223.981254z m143.97188 119.976567V423.892209c0 13.197422 10.797891 23.995313 23.995314 23.995313h138.372974c73.385667 0 125.575474-53.989455 125.575473-132.574107 0-148.570982-137.373169-132.974029-190.962702-132.974028V87.957821c0-13.197422-10.797891-23.995313-23.995314-23.995314H391.948448c-13.197422 0-23.995313 10.797891-23.995314 23.995314z m96.981059 174.765866h45.991017c15.796915 0 27.794571 4.799063 36.192931 14.397188 16.99668 19.596173 16.796719 56.988869 0.199961 75.585237-8.198399 9.198203-19.796134 13.997266-34.793205 13.997266h-47.790665v-103.979691z"  horiz-adv-x="1024" />

    
    <glyph glyph-name="f-word" unicode="&#59077;" d="M867.655536 700.038274L699.888303 867.805507C681.891818 885.801992 657.496583 896 632.101543 896H223.981254C170.991603 895.800039 128 852.808436 128 799.818785v-831.837531c0-52.98965 42.991603-95.981254 95.981254-95.981254h575.887522c52.98965 0 95.981254 42.991603 95.981253 95.981254V632.051552c0 25.39504-10.198008 49.990236-28.194493 67.986722zM792.070299 639.850029H639.90002V792.020309l152.170279-152.17028zM223.981254-32.018746V799.818785h319.937512v-207.959383c0-26.594806 21.395821-47.990627 47.990627-47.990626h207.959383v-575.887522H223.981254z m440.11404 415.918766c-11.397774 0-21.19586-7.998438-23.395431-18.99629-41.191955-195.361843-40.792033-190.762742-41.991798-206.959578-0.399922 2.399531-0.799844 5.198985-1.399727 8.59832-1.599688 10.198008 0.599883-0.399922-47.190783 198.961141-2.599492 10.797891-12.197618 18.396407-23.39543 18.396407h-26.594806c-10.997852 0-20.595977-7.598516-23.395431-18.196446-48.790471-197.961336-47.990627-192.362429-49.590314-207.359501-0.199961 2.19957-0.399922 4.999024-0.999805 8.39836-1.399727 10.397969-28.194493 146.571373-38.19254 197.961336-2.19957 11.197813-11.997657 19.396212-23.595392 19.396211h-33.593439c-15.596954 0-26.994728-14.597149-23.39543-29.594219 15.996876-65.187268 53.389572-218.957235 66.387034-271.946886 2.599492-10.797891 12.197618-18.196446 23.39543-18.196446h50.390158c10.997852 0 20.595977 7.398555 23.19547 18.196446l35.793009 142.772115c2.999414 12.397579 4.999024 23.995313 5.998828 34.593244l5.798868-34.593244c0.199961-0.799844 25.195079-100.980277 35.793009-142.772115 2.599492-10.59793 12.197618-18.196446 23.19547-18.196446h49.390353c10.997852 0 20.595977 7.398555 23.19547 18.196446 41.591877 163.768014 60.388205 237.953525 68.986526 271.946886 3.799258 15.197032-7.598516 29.794181-23.19547 29.79418h-31.593829z"  horiz-adv-x="1024" />

    
    <glyph glyph-name="f-text" unicode="&#59078;" d="M704 400v-56c0-13.2-10.8-24-24-24H344c-13.2 0-24 10.8-24 24v56c0 13.2 10.8 24 24 24h336c13.2 0 24-10.8 24-24z m-24-144H344c-13.2 0-24-10.8-24-24v-56c0-13.2 10.8-24 24-24h336c13.2 0 24 10.8 24 24v56c0 13.2-10.8 24-24 24z m216 376.2V-32c0-53-43-96-96-96H224c-53 0-96 43-96 96V800C128 853 171 896 224 896h408.2C657.6 896 682 885.8 700 867.8L867.8 700c18-17.8 28.2-42.4 28.2-67.8z m-256 160V640h152.2L640 792.2zM800-32V544H592c-26.6 0-48 21.4-48 48V800H224v-832h576z"  horiz-adv-x="1024" />

    
    <glyph glyph-name="loading" unicode="&#59079;" d="M938.496 412.672v-56.832h-227.328V412.672h227.328z m-625.664 0v-56.832H85.504V412.672h227.328z m170.496-227.84h56.832v-227.328H483.328v227.328z m0 625.664h56.832v-227.328H483.328V810.496z m341.504-699.392l-39.936-39.936-159.232 159.232 39.936 39.936 159.232-159.232zM398.336 537.6L358.4 497.664 199.168 656.896l39.936 39.936L398.336 537.6zM358.4 270.336l39.936-39.936-159.232-159.232-39.936 39.936L358.4 270.336z m426.496 426.496l39.936-39.936L665.6 497.664l-39.936 39.936 159.232 159.232z"  horiz-adv-x="1024" />

    


  </font>
</defs>
</svg>
